<?xml version="1.0" standalone="no"?>
<!DOCTYPE svg PUBLIC "-//W3C//DTD SVG 20010904//EN"
 "http://www.w3.org/TR/2001/REC-SVG-20010904/DTD/svg10.dtd">
<svg version="1.0" xmlns="http://www.w3.org/2000/svg"
 width="970.000000pt" height="829.000000pt" viewBox="0 0 970.000000 829.000000"
 preserveAspectRatio="xMidYMid meet">

<g transform="translate(0.000000,829.000000) scale(0.100000,-0.100000)"
fill="#000000" stroke="none">
<path d="M0 7535 c0 -497 3 -755 10 -755 13 0 13 -37 0 -45 -16 -10 -14 -1937
2 -1953 9 -9 9 -12 0 -12 -15 0 -17 -116 -2 -125 13 -8 13 -65 0 -65 -6 0 -10
-28 -10 -65 0 -36 4 -65 9 -65 18 0 21 -33 6 -63 -18 -36 -23 -323 -5 -312 6
3 10 4 10 2 0 -2 4 -28 10 -57 11 -60 3 -84 -16 -49 -11 20 -13 -325 -14
-1973 l0 -1998 4850 0 4850 0 0 4145 0 4145 -4850 0 -4850 0 0 -755z m2279
-738 c87 1 92 0 77 -15 -19 -19 -133 -27 -152 -11 -6 5 -41 7 -78 4 -67 -6
-106 -1 -106 15 0 14 41 19 105 12 33 -4 102 -6 154 -5z m-2009 -52 c0 -27
-24 -49 -45 -41 -19 7 -19 40 0 60 20 20 45 10 45 -19z m286 -10 c18 -14 18
-16 -14 -45 -18 -17 -37 -28 -42 -25 -22 14 -2 85 23 85 7 0 22 -7 33 -15z
m109 -5 c3 -6 18 -7 32 -4 23 6 24 5 14 -15 -7 -12 -17 -21 -24 -20 -7 1 -25
-3 -41 -10 -40 -16 -55 -1 -32 33 17 27 40 34 51 16z m515 -50 c0 -9 -32 -30
-46 -30 -4 0 1 9 11 20 19 21 35 26 35 10z m368 -12 c-6 -18 -48 -30 -48 -13
0 12 14 20 43 24 5 0 7 -4 5 -11z m-1490 -99 c-2 -24 -7 -44 -13 -44 -15 0
-24 66 -12 86 17 27 29 8 25 -42z m220 -10 c-3 -41 -5 -44 -34 -47 -41 -4 -61
19 -46 53 7 14 20 25 31 25 10 0 22 8 25 17 12 30 27 -2 24 -48z m80 -18 c-2
-13 -8 -26 -14 -28 -13 -4 -26 60 -13 65 5 2 9 11 10 20 0 11 4 8 10 -8 5 -13
9 -35 7 -49z m-227 46 c-6 -38 -15 -67 -22 -67 -11 0 -12 64 -2 74 8 8 25 3
24 -7z m44 -35 c0 -46 -20 -44 -22 1 -2 26 2 37 10 34 7 -2 12 -18 12 -35z
m268 21 c4 -3 0 -15 -9 -25 -14 -15 -15 -20 -3 -35 12 -15 12 -16 -4 -10 -10
4 -21 7 -23 7 -8 0 -4 31 6 51 11 20 22 24 33 12z m121 -16 c11 -8 17 -23 14
-38 -2 -19 -10 -25 -36 -27 -40 -4 -50 16 -27 52 20 30 24 31 49 13z m91 4 c3
-5 1 -12 -5 -16 -5 -3 -10 -18 -10 -31 0 -16 -5 -24 -12 -22 -13 5 -30 57 -22
70 7 11 41 10 49 -1z m395 0 c0 -5 -6 -11 -12 -13 -18 -6 -16 -87 2 -98 12 -8
11 -10 -6 -10 -18 0 -22 8 -28 52 -6 44 -4 55 10 65 21 15 34 17 34 4z m-304
-15 c7 -8 18 -16 24 -18 16 -5 1 -37 -22 -49 -15 -8 -24 -7 -39 7 -24 21 -24
43 -1 60 21 17 21 17 38 0z m91 -24 c-10 -10 -17 -24 -17 -30 0 -7 -4 -12 -10
-12 -5 0 -10 13 -10 29 0 23 5 30 23 33 30 5 33 1 14 -20z m286 -12 c-13 -5
-23 -16 -23 -25 0 -8 -9 -15 -20 -15 -11 0 -20 4 -20 10 0 12 49 39 70 39 8 0
5 -4 -7 -9z m277 -12 c0 -21 -79 -60 -106 -54 -13 4 -24 11 -24 16 0 15 49 43
65 36 8 -3 25 -1 37 4 13 5 24 9 26 9 1 1 2 -5 2 -11z m260 -2 c0 -14 -116
-76 -144 -76 -9 0 -16 7 -16 15 0 18 95 66 115 59 7 -3 16 -1 20 5 9 15 25 14
25 -3z m103 -3 c9 -9 -43 -43 -65 -43 -29 0 -20 20 15 35 37 17 41 17 50 8z
m-263 -7 c0 -6 -70 -46 -81 -46 -17 0 -9 15 19 32 25 15 62 23 62 14z m-1242
-95 c10 -6 8 -10 -8 -14 -29 -8 -22 -39 10 -47 18 -4 21 -8 10 -12 -20 -7 -59
8 -66 26 -7 18 13 56 29 56 7 0 18 -4 25 -9z m298 -11 c8 0 14 -4 14 -10 0 -5
-4 -10 -9 -10 -5 0 -11 -9 -14 -21 -4 -14 1 -23 16 -29 21 -8 20 -9 -5 -9 -23
-1 -29 5 -37 36 -8 27 -7 41 1 51 8 9 14 10 16 3 2 -6 10 -11 18 -11z m194 10
c0 -5 -5 -10 -11 -10 -5 0 -7 5 -4 10 3 6 8 10 11 10 2 0 4 -4 4 -10z m-372
-42 c3 -36 1 -38 -25 -38 -15 0 -35 4 -43 10 -12 7 -12 12 4 29 12 13 14 21 7
21 -7 0 -9 5 -6 11 4 5 19 9 33 7 23 -3 27 -8 30 -40z m77 7 c-14 -13 -25 -29
-25 -35 0 -5 -4 -10 -10 -10 -5 0 -10 16 -10 35 0 33 2 35 35 35 l34 0 -24
-25z m282 7 c17 -11 29 -72 14 -72 -6 0 -11 12 -11 26 0 17 -6 28 -20 31 -11
3 -17 9 -14 14 6 11 15 11 31 1z m123 -11 c0 -5 -9 -11 -21 -14 -13 -4 -19
-12 -17 -23 5 -30 25 -27 64 10 44 42 45 42 68 17 16 -17 20 -18 44 -5 30 16
49 18 55 7 11 -19 18 -73 9 -73 -5 0 -12 14 -16 31 -7 37 -30 34 -34 -4 -3
-28 -22 -38 -22 -12 0 8 -4 15 -9 15 -5 0 -14 -7 -21 -15 -16 -19 -29 -19 -52
2 -14 13 -21 14 -30 5 -18 -18 -53 -14 -73 8 -17 19 -17 21 0 40 18 20 55 28
55 11z m-702 -13 c-6 -18 -28 -21 -28 -4 0 9 7 16 16 16 9 0 14 -5 12 -12z
m500 5 c-10 -2 -28 -2 -40 0 -13 2 -5 4 17 4 22 1 32 -1 23 -4z m612 -22 c0
-6 12 -6 32 0 49 14 56 11 28 -12 -36 -29 -70 -42 -112 -45 -36 -2 -38 -1 -38
29 0 22 3 28 9 18 6 -10 10 -10 16 -1 4 6 13 9 21 6 7 -3 16 -1 19 4 8 13 25
13 25 1z m-147 -8 c-7 -2 -19 -2 -25 0 -7 3 -2 5 12 5 14 0 19 -2 13 -5z m397
-4 c0 -6 -10 -19 -22 -29 -31 -25 -17 -35 21 -16 35 19 45 20 36 6 -6 -10 -78
-50 -90 -50 -4 0 -3 9 0 20 7 23 -3 25 -39 9 -19 -9 -29 -8 -47 4 -22 16 -22
16 27 39 54 25 114 34 114 17z m550 -49 c0 -28 -100 -48 -131 -27 l-22 16 24
5 c21 5 54 9 112 14 9 1 17 -2 17 -8z m300 -20 c0 -14 -50 -32 -69 -25 -14 6
-13 8 3 21 23 16 66 19 66 4z m-2295 -36 c25 -25 16 -67 -15 -69 -14 -1 -31 0
-37 2 -21 8 -15 39 10 52 12 6 14 9 5 7 -20 -6 -34 10 -16 17 23 10 36 7 53
-9z m110 -3 c6 -2 -1 -6 -15 -10 -18 -5 -26 -15 -28 -34 -2 -16 -8 -26 -15
-24 -10 3 -13 22 -8 62 1 10 39 13 66 6z m97 -15 c4 -6 8 -14 8 -17 0 -11 -29
-19 -47 -12 -11 4 -14 3 -9 -5 4 -7 17 -12 29 -12 15 0 18 -3 10 -11 -14 -14
-50 -3 -63 20 -14 27 15 64 43 55 12 -4 25 -12 29 -18z m168 14 c0 -5 7 -10
15 -10 8 0 15 -4 15 -10 0 -5 -7 -10 -15 -10 -24 0 -18 -37 7 -43 12 -4 19 -9
16 -13 -4 -3 -19 -4 -33 0 -18 5 -25 13 -25 32 0 13 -7 27 -15 30 -14 6 -13 8
2 20 22 16 33 18 33 4z m180 -5 c0 -8 9 -15 20 -15 20 0 40 -33 40 -66 0 -26
-25 -9 -28 19 -4 34 -32 36 -32 3 0 -29 -20 -46 -21 -19 0 10 -2 35 -4 56 -3
27 0 37 10 37 8 0 15 -7 15 -15z m-252 -7 c14 -12 17 -68 3 -68 -5 0 -11 12
-13 28 -2 16 -9 27 -18 27 -9 0 -16 -11 -18 -27 -5 -42 -22 -33 -22 11 0 35 2
39 28 39 15 0 33 -5 40 -10z m592 -29 c0 -17 3 -29 8 -27 4 2 19 10 34 17 25
13 30 12 48 -4 28 -25 25 -35 -11 -35 -18 0 -28 -4 -24 -10 4 -6 15 -8 26 -5
11 4 19 2 19 -4 0 -17 -47 -13 -65 6 -14 13 -18 14 -25 3 -13 -21 -53 -20 -77
3 -21 18 -23 19 -23 3 0 -14 -7 -17 -37 -14 -44 4 -56 29 -21 46 18 8 19 11 6
11 -28 1 -21 21 6 21 14 0 31 -9 39 -20 l14 -20 18 20 c10 11 24 20 32 20 7 0
13 5 13 10 0 6 5 10 10 10 6 0 10 -14 10 -31z m-192 -6 c14 -22 13 -23 -17
-23 -19 0 -30 -4 -26 -10 3 -5 16 -10 28 -10 20 -1 21 -1 4 -11 -14 -8 -24 -7
-43 5 -28 19 -31 51 -6 65 24 15 42 10 60 -16z m505 -10 c18 2 41 1 52 -3 18
-7 19 -8 3 -15 -26 -10 -23 -45 3 -45 11 0 17 -4 14 -10 -12 -20 -36 -9 -46
20 -13 36 -19 37 -52 6 -17 -15 -28 -20 -31 -13 -3 8 -8 7 -15 -3 -9 -13 -11
-12 -12 5 -1 11 -3 27 -4 35 -2 22 14 40 31 33 8 -3 15 1 15 8 1 8 3 6 6 -5 4
-14 12 -17 36 -13z m-113 1 c0 -2 -11 -9 -25 -14 -15 -6 -25 -17 -25 -30 0
-25 -17 -27 -22 -2 -8 35 3 49 38 50 19 1 34 -1 34 -4z m290 -25 c8 0 31 3 50
6 l35 6 -29 -26 c-32 -30 -28 -45 8 -26 13 8 30 11 38 8 14 -5 -66 -46 -91
-47 -11 0 -11 3 0 16 12 14 8 15 -33 9 -39 -6 -48 -4 -60 14 -8 11 -18 18 -21
14 -4 -3 -7 -2 -7 4 0 16 43 33 70 27 14 -3 32 -5 40 -5z m304 -31 c-5 -8 -2
-9 12 -4 35 14 98 20 90 8 -3 -6 3 -12 16 -14 18 -3 12 -7 -26 -21 -54 -19
-102 -24 -77 -8 10 6 0 8 -29 4 -29 -4 -41 -3 -36 5 3 6 -2 12 -11 15 -15 3
-14 6 7 15 34 15 63 15 54 0z m-1584 -78 c12 -8 11 -10 -6 -10 -30 0 -49 -24
-30 -39 7 -6 21 -9 30 -5 9 3 16 2 16 -4 0 -32 -72 -11 -78 23 -4 18 21 45 42
45 6 0 18 -5 26 -10z m52 -27 c2 -17 9 -28 18 -28 9 0 16 11 18 28 5 41 22 32
22 -12 0 -35 -2 -39 -27 -39 -37 0 -53 15 -53 49 0 37 18 38 22 2z m151 20 c4
-3 -3 -11 -16 -17 -12 -6 -23 -22 -25 -34 -5 -35 -22 -26 -22 12 0 28 4 35 23
39 12 2 25 5 28 6 3 0 9 -2 12 -6z m107 -13 c0 -6 -9 -10 -20 -10 -15 0 -22
-9 -26 -30 -9 -43 -24 -37 -24 8 0 37 1 39 35 40 19 1 35 -3 35 -8z m81 0 c28
-15 24 -40 -6 -40 -14 0 -25 -4 -25 -10 0 -5 12 -10 28 -10 24 -1 25 -2 9 -11
-14 -8 -24 -7 -43 5 -28 19 -31 51 -6 65 21 13 20 13 43 1z m199 -5 c25 -14
25 -14 3 -15 -16 0 -23 -6 -23 -20 0 -12 9 -24 23 -29 20 -8 20 -10 4 -16 -21
-9 -47 11 -47 37 0 10 -7 21 -16 25 -15 6 -15 8 2 20 22 16 23 16 54 -2z m-92
-7 c14 -12 17 -68 3 -68 -5 0 -11 12 -13 28 -4 36 -32 36 -36 -1 -5 -37 -22
-24 -22 17 0 30 3 34 28 34 15 0 33 -5 40 -10z m298 -23 c16 -24 16 -27 -1
-45 -10 -11 -24 -20 -31 -20 -7 0 -14 -6 -17 -12 -8 -23 -20 1 -23 46 -3 46
-5 45 48 55 4 0 15 -10 24 -24z m-911 6 c7 -12 -12 -24 -25 -16 -11 7 -4 25
10 25 5 0 11 -4 15 -9z m1003 -3 c7 -7 12 -25 12 -41 0 -27 -2 -28 -37 -25
-48 4 -57 31 -16 46 l28 10 -28 1 c-16 1 -26 5 -22 11 9 14 48 13 63 -2z m105
-19 c-3 -11 -15 -25 -27 -30 -18 -7 -17 -8 9 -6 21 1 30 7 29 18 -2 24 42 46
64 32 25 -15 21 -36 -8 -44 -24 -7 -24 -7 -2 -8 30 -1 28 -21 -2 -21 -14 0
-28 5 -31 10 -10 16 -28 12 -21 -5 7 -19 -37 -39 -65 -30 -15 5 -19 16 -19 56
l0 49 39 0 c35 0 39 -2 34 -21z m252 1 c-27 -12 -43 -12 -25 0 8 5 22 9 30 9
10 0 8 -3 -5 -9z m115 -11 c0 -6 8 -8 18 -5 45 12 82 17 82 9 0 -12 -90 -47
-130 -51 -19 -1 -60 -7 -90 -13 -95 -20 -117 -21 -124 -10 -5 7 4 11 23 11 39
0 61 9 61 26 0 15 79 42 128 43 17 1 32 -4 32 -10z m373 -22 c36 -19 19 -33
-48 -42 -27 -4 -58 -9 -69 -12 -13 -4 -16 -1 -11 7 6 10 -1 11 -31 7 l-39 -6
30 14 c38 18 17 18 -65 0 -36 -8 -70 -14 -77 -15 -13 0 -11 26 3 39 14 13 74
24 74 13 0 -5 23 -3 53 4 60 15 141 11 180 -9z m-1043 -17 c21 -7 19 -8 -17
-9 -24 -1 -43 4 -43 9 0 12 24 12 60 0z m1196 1 c-12 -19 -77 -41 -118 -40
-34 0 -38 2 -22 9 12 4 24 15 27 22 3 10 23 15 61 16 31 1 54 -2 52 -7z m896
-37 c27 -3 51 -10 54 -15 13 -22 -53 -31 -171 -24 -66 4 -165 8 -220 9 -111 2
-140 11 -110 32 15 11 60 13 209 9 105 -3 212 -7 238 -11z m-2772 -44 c0 -5
-10 -9 -22 -7 -17 1 -23 -3 -23 -18 0 -14 8 -21 28 -23 15 -2 25 -8 22 -13 -9
-13 -49 -11 -63 3 -13 13 -16 50 -5 61 10 11 63 8 63 -3z m50 -26 c0 -15 6
-24 15 -24 9 0 15 9 15 24 0 38 17 40 23 3 6 -41 2 -47 -34 -47 -32 0 -57 35
-45 65 8 23 26 9 26 -21z m138 10 c-16 -8 -28 -23 -28 -34 0 -11 -4 -20 -10
-20 -5 0 -10 16 -10 35 0 34 1 35 38 35 l37 -1 -27 -15z m117 7 c6 -2 -1 -6
-15 -10 -18 -5 -26 -15 -28 -34 -5 -41 -22 -32 -22 11 0 35 2 38 28 36 15 0
32 -2 37 -3z m103 -29 c3 -10 -25 -17 -50 -13 -5 0 -8 -3 -8 -9 0 -5 12 -10
26 -10 14 0 23 -4 19 -10 -12 -19 -44 -10 -62 16 -16 26 -16 27 6 46 21 16 27
17 44 5 12 -8 23 -19 25 -25z m185 8 c-2 -3 -10 -5 -16 -5 -22 0 -20 -36 2
-42 24 -6 29 -23 7 -23 -21 0 -46 28 -46 51 0 10 -6 19 -12 19 -8 1 -6 6 5 14
14 11 23 11 42 2 13 -6 21 -13 18 -16z m-95 3 c12 -25 9 -56 -5 -60 -9 -3 -13
6 -13 26 0 21 -5 31 -15 31 -10 0 -15 -10 -15 -30 0 -28 -19 -44 -21 -17 0 6
-2 21 -4 31 -5 27 -1 31 34 34 20 2 33 -3 39 -15z m304 -17 c5 -8 11 -7 20 2
13 13 50 16 62 5 4 -4 29 -8 54 -8 46 0 47 -1 50 -32 2 -19 -1 -33 -7 -33 -6
0 -11 11 -11 23 0 13 -3 27 -7 30 -11 12 -31 -13 -26 -33 4 -14 0 -20 -11 -20
-11 0 -16 9 -16 26 0 20 -3 24 -12 16 -7 -5 -24 -12 -38 -15 -25 -4 -25 -4 3
-6 15 0 27 -5 27 -11 0 -16 -46 -12 -61 6 -12 14 -14 14 -26 -2 -13 -18 -16
-15 -26 31 -3 15 -5 13 -6 -7 0 -16 -5 -28 -11 -28 -5 0 -11 12 -11 28 l-2 27
-4 -27 c-6 -41 -33 -36 -33 6 0 25 5 36 18 38 25 5 66 -3 74 -16z m-922 -7 c0
-5 -7 -9 -15 -9 -15 0 -20 12 -9 23 8 8 24 -1 24 -14z m812 -1 c-8 -8 -20 -8
-44 -1 l-33 11 45 1 c33 1 41 -2 32 -11z m338 -24 c0 -15 6 -24 15 -24 9 0 15
9 15 24 0 34 16 41 24 12 9 -37 -1 -52 -37 -51 -30 0 -32 3 -35 39 -2 25 0 36
7 31 6 -3 11 -17 11 -31z m230 15 c0 -7 11 -8 33 -3 45 10 87 12 82 4 -3 -4
20 -7 50 -6 35 1 59 -4 63 -11 6 -9 17 -10 39 -4 41 12 155 17 170 8 6 -4 19
-4 30 -1 15 5 16 4 3 -5 -12 -10 -8 -12 20 -10 84 3 141 -1 135 -11 -3 -5 -18
-10 -32 -10 -20 0 -23 -3 -14 -14 9 -11 7 -15 -11 -20 -35 -9 -321 6 -306 16
8 6 4 7 -12 4 -85 -16 -91 -16 -107 4 -10 12 -21 16 -27 10 -6 -4 -48 -11 -92
-14 -75 -5 -82 -4 -87 14 -4 15 1 22 19 26 40 10 27 23 -13 13 -21 -5 -54 -9
-72 -9 -50 0 -26 18 29 23 88 7 100 7 100 -4z m1534 -77 c56 -8 70 -26 29 -37
-28 -7 -449 2 -490 11 -13 2 -23 9 -23 15 0 5 10 14 23 18 25 10 387 5 461 -7z
m-2844 -27 c0 -9 10 -15 26 -15 17 0 28 -6 31 -20 3 -11 7 -20 9 -20 2 0 13 9
24 20 11 11 25 20 30 20 13 0 50 -37 50 -49 0 -16 -31 -41 -50 -41 -10 0 -26
10 -34 22 -13 18 -16 19 -16 5 0 -28 -28 -19 -32 10 -4 36 -26 41 -30 7 -2
-15 -9 -29 -15 -32 -9 -3 -13 12 -13 52 0 31 5 56 10 56 6 0 10 -7 10 -15z
m-66 -14 c3 -5 -1 -14 -8 -20 -16 -13 -32 2 -21 19 8 12 22 13 29 1z m275 -38
l13 -28 15 28 c8 16 17 26 20 24 10 -10 -19 -77 -33 -77 -13 0 -44 48 -44 70
0 20 17 10 29 -17z m143 10 c26 -23 22 -33 -13 -33 -17 0 -28 -4 -24 -10 3 -5
16 -10 28 -10 15 0 18 -3 10 -11 -7 -7 -23 -9 -37 -5 -34 8 -47 53 -21 73 24
17 35 17 57 -4z m271 -2 c36 -19 34 -34 -8 -54 -38 -18 -49 -5 -13 14 l22 12
-22 17 c-21 17 -31 36 -14 28 4 -2 19 -10 35 -17z m427 9 c0 -5 -8 -10 -17
-10 -15 0 -15 -1 2 -13 17 -13 17 -14 -4 -20 -15 -3 -21 -13 -21 -31 0 -14 -4
-26 -10 -26 -5 0 -10 13 -10 29 0 16 -6 31 -12 34 -9 3 -4 11 12 25 26 22 60
29 60 12z m-590 -10 c0 -5 -9 -10 -20 -10 -15 0 -22 -9 -26 -30 -9 -43 -24
-37 -24 10 0 39 1 40 35 40 19 0 35 -4 35 -10z m480 -20 c0 -5 -10 -10 -22
-10 -23 0 -22 -1 2 -13 14 -7 25 -19 25 -27 0 -18 -38 -25 -62 -11 -15 9 -14
10 12 11 28 1 28 2 10 12 -24 14 -35 29 -29 40 7 12 64 10 64 -2z m-1009 -15
c-1 -15 -24 -12 -29 3 -3 9 2 13 12 10 10 -1 17 -7 17 -13z m1286 8 c16 -6 16
-8 -4 -13 -22 -5 -22 -6 7 -22 30 -17 30 -17 30 7 0 29 8 32 26 8 13 -17 15
-17 25 0 13 22 101 24 118 3 8 -9 23 -12 39 -9 83 15 764 -5 783 -24 5 -5 6
-18 3 -30 -7 -25 -63 -36 -154 -29 -30 3 -83 5 -117 5 -61 1 -83 13 -43 24 41
11 20 27 -35 27 -60 0 -70 -10 -27 -27 22 -9 5 -11 -90 -12 -130 -1 -148 3
-148 30 0 17 -9 19 -99 19 -56 0 -103 -4 -106 -10 -3 -5 0 -10 7 -11 7 0 2 -5
-12 -10 -29 -12 -240 -2 -254 12 -6 5 2 9 20 10 26 0 27 1 8 9 -29 12 -40 30
-23 41 17 11 22 11 46 2z m-84 -20 c-13 -2 -35 -2 -50 0 -16 2 -5 4 22 4 28 0
40 -2 28 -4z m-305 -24 c-2 -6 -8 -10 -13 -10 -5 0 -11 4 -13 10 -2 6 4 11 13
11 9 0 15 -5 13 -11z m2210 -67 c3 -9 -10 -11 -55 -6 -83 9 -93 26 -14 22 41
-2 66 -8 69 -16z m-2728 -27 c0 -7 12 -15 28 -17 24 -3 27 -8 30 -42 2 -28 0
-37 -10 -34 -7 3 -14 17 -16 31 -5 38 -32 35 -32 -3 0 -45 -20 -36 -21 10 -1
22 -2 46 -3 53 -1 6 -1 15 2 20 5 11 22 -2 22 -18z m-350 -15 c15 -24 12 -60
-5 -60 -10 0 -15 10 -15 30 0 20 -5 30 -15 30 -10 0 -15 -10 -15 -30 0 -20 -5
-30 -15 -30 -11 0 -15 11 -15 39 0 37 1 38 35 37 20 -1 40 -8 45 -16z m200 -9
c5 -11 10 -29 10 -41 0 -18 -5 -21 -37 -18 -45 4 -58 33 -21 47 l23 10 -23 0
c-31 1 -18 21 13 21 14 0 29 -8 35 -19z m80 4 c0 -8 -7 -15 -15 -15 -8 0 -15
7 -15 15 0 8 7 15 15 15 8 0 15 -7 15 -15z m215 -8 c29 -22 13 -67 -23 -67
-31 0 -52 16 -52 40 0 37 41 51 75 27z m87 -15 c22 32 33 16 14 -20 -23 -45
-33 -47 -56 -10 -28 46 -25 71 4 35 l23 -28 15 23z m116 6 c22 -22 13 -38 -20
-39 -31 -2 -31 -2 -5 -6 15 -2 27 -9 27 -14 0 -13 -54 -11 -68 3 -26 26 -6 68
33 68 12 0 26 -5 33 -12z m102 3 c0 -3 -10 -11 -22 -16 -13 -6 -23 -19 -23
-29 0 -11 -6 -21 -13 -24 -8 -2 -12 9 -12 35 0 38 1 39 35 40 19 1 35 -2 35
-6z m185 -11 c3 -6 -4 -10 -17 -10 -22 -1 -22 -2 5 -16 16 -8 26 -21 24 -27
-5 -16 -57 -21 -70 -8 -8 8 -3 11 19 12 26 0 27 1 8 9 -43 17 -42 50 1 50 13
0 27 -4 30 -10z m103 -5 c2 -2 5 -16 5 -31 0 -28 -20 -47 -40 -39 -7 2 -13 -2
-13 -10 0 -20 -16 -19 -24 1 -7 19 -8 79 -1 86 6 6 66 1 73 -7z m382 -3 c232
-10 465 -22 505 -27 28 -4 147 -10 266 -14 158 -5 221 -10 233 -20 24 -20 12
-29 -47 -36 -133 -16 -242 -9 -258 17 -4 6 -35 14 -68 16 -74 5 -180 -6 -161
-18 22 -14 -24 -15 -210 -8 -225 10 -250 13 -262 29 -7 11 -11 11 -15 2 -2 -8
-21 -13 -41 -12 -20 0 -31 3 -24 6 6 2 12 11 12 19 0 8 10 15 23 15 l22 2 -22
4 c-13 2 -23 7 -23 9 0 11 25 31 30 24 3 -4 21 -8 40 -8z m-282 -34 c3 -36 1
-38 -25 -38 -15 0 -34 4 -42 9 -17 11 -7 41 14 41 8 0 15 4 15 9 0 5 -9 7 -20
4 -12 -3 -20 0 -20 6 0 8 14 11 38 9 35 -3 37 -5 40 -40z m86 31 c2 -2 7 -19
11 -36 5 -26 3 -33 -9 -33 -11 0 -16 9 -16 31 0 38 -24 34 -28 -5 -5 -38 -25
-27 -30 16 -3 36 -3 36 33 34 19 -2 37 -5 39 -7z m-999 -29 c-5 -8 -11 -8 -17
-2 -6 6 -7 16 -3 22 5 8 11 8 17 2 6 -6 7 -16 3 -22z m1085 -30 c0 -19 -13
-40 -24 -40 -9 0 -15 44 -7 57 3 6 31 -10 31 -17z m1695 -40 c4 -6 -7 -10 -27
-10 -25 0 -29 3 -18 10 19 13 37 13 45 0z m-2950 -50 c3 -6 -5 -10 -19 -10
-14 0 -28 -5 -31 -10 -10 -17 16 -41 36 -35 11 4 19 2 19 -4 0 -15 -53 -14
-68 1 -15 15 -15 41 0 56 15 15 54 16 63 2z m47 -30 c4 -34 32 -32 36 3 5 41
22 33 22 -10 0 -35 -2 -38 -27 -38 -41 0 -53 12 -53 53 0 40 16 34 22 -8z
m518 31 c0 -5 10 -12 23 -16 l22 -8 -22 -4 c-15 -3 -23 -12 -23 -24 0 -11 10
-24 23 -29 20 -9 19 -9 -8 -7 -24 1 -31 7 -34 27 -1 14 -8 28 -13 31 -7 5 -6
12 3 23 16 17 29 21 29 7z m-360 -11 c0 -5 -10 -10 -22 -12 -17 -2 -24 -11
-26 -30 -5 -42 -22 -33 -22 10 0 37 1 39 35 40 19 1 35 -3 35 -8z m100 0 c0
-4 -11 -11 -25 -14 -18 -5 -25 -13 -25 -31 0 -14 -4 -25 -10 -25 -5 0 -10 17
-10 38 0 37 1 38 35 39 19 1 35 -3 35 -7z m81 0 c28 -15 24 -40 -6 -40 -14 0
-25 -4 -25 -10 0 -5 12 -10 27 -10 20 0 24 -3 16 -11 -7 -7 -23 -9 -37 -5 -34
8 -47 53 -21 73 22 16 21 16 46 3z m117 -42 c2 -22 -1 -38 -7 -38 -6 0 -11 14
-11 31 0 24 -4 30 -17 27 -11 -2 -19 -14 -21 -31 -5 -38 -22 -23 -22 19 0 35
1 35 38 32 35 -3 37 -5 40 -40z m300 -10 c2 -22 -1 -38 -7 -38 -6 0 -12 15
-12 33 -2 27 -2 28 -6 7 -8 -41 -21 -45 -31 -9 l-10 34 -1 -33 c-1 -45 -21
-31 -21 14 0 35 0 35 43 32 41 -3 42 -4 45 -40z m80 30 c20 -20 14 -38 -14
-38 -15 0 -23 -4 -19 -11 4 -6 13 -8 21 -5 7 3 16 1 19 -4 9 -14 -49 -12 -63
2 -24 24 -7 68 28 68 9 0 21 -5 28 -12z m101 -3 c13 -7 15 -65 2 -65 -5 0 -11
14 -15 31 -7 37 -30 34 -34 -4 -5 -41 -22 -32 -22 11 0 36 2 38 29 36 16 -1
34 -5 40 -9z m-299 -5 c11 -7 5 -10 -22 -10 -21 0 -38 5 -38 10 0 13 40 13 60
0z m347 -20 c7 -37 27 -34 31 3 5 41 22 32 22 -12 0 -35 -2 -39 -27 -39 -37 0
-53 15 -53 49 0 38 19 37 27 -1z m451 15 c64 -5 139 -23 105 -24 -7 -1 -22
-10 -34 -22 -11 -11 -27 -18 -35 -15 -8 3 -14 1 -14 -4 0 -11 -60 -13 -137 -4
-46 6 -53 10 -53 29 0 15 -8 25 -22 28 -29 8 -38 1 -39 -31 -1 -26 -1 -26 -11
6 -6 17 -17 32 -24 32 -8 0 -14 4 -14 8 0 9 155 7 278 -3z m-1608 -10 c0 -8
-4 -15 -9 -15 -13 0 -22 16 -14 24 11 11 23 6 23 -9z m1310 -5 c11 -7 4 -10
-27 -10 -23 0 -45 5 -48 10 -8 13 55 13 75 0z m1370 -30 c134 -10 163 -16 157
-34 -8 -23 -90 -29 -260 -18 -168 10 -182 14 -187 47 -2 16 41 24 105 19 33
-2 116 -9 185 -14z m-730 -5 c0 -8 -4 -15 -8 -15 -5 0 -9 7 -9 15 0 8 4 15 9
15 4 0 8 -7 8 -15z m-1720 -107 c0 -5 -7 -8 -15 -8 -24 0 -18 -39 8 -50 20 -9
19 -9 -8 -7 -22 1 -31 8 -33 24 -2 12 -10 27 -18 34 -23 19 11 39 42 25 13 -6
24 -14 24 -18z m-208 5 c26 -23 22 -33 -12 -33 -16 0 -30 -4 -30 -10 0 -5 12
-10 27 -10 19 0 24 -3 16 -11 -5 -5 -22 -7 -37 -3 -34 8 -47 51 -21 71 24 17
35 17 57 -4z m693 -11 c17 -10 18 -11 3 -12 -12 0 -18 -8 -18 -25 0 -16 6 -25
15 -25 8 0 15 -4 15 -10 0 -5 -6 -10 -12 -10 -22 0 -38 16 -43 41 -3 13 -10
26 -16 28 -6 2 -3 11 7 22 10 11 20 16 23 11 3 -5 15 -14 26 -20z m-581 2 c3
-9 6 -27 6 -41 0 -34 -24 -24 -30 12 -7 39 -24 37 -28 -3 -4 -44 -26 -36 -30
11 -3 37 -3 37 36 37 27 0 42 -5 46 -16z m280 10 c23 -9 19 -21 -6 -20 -37 1
-30 -37 7 -45 25 -5 27 -7 12 -14 -10 -4 -29 -3 -43 3 -29 14 -33 56 -6 71 21
13 17 12 36 5z m114 -16 c7 -7 12 -24 12 -39 0 -25 -3 -27 -37 -26 -44 2 -61
34 -24 44 12 3 21 9 21 13 0 5 -10 6 -22 2 -14 -3 -19 -2 -14 6 9 16 49 15 64
0z m102 3 c0 -5 -9 -11 -20 -14 -14 -3 -20 -14 -20 -32 0 -17 -5 -25 -12 -23
-14 5 -23 42 -15 61 5 14 67 21 67 8z m-300 -11 c0 -5 -16 -10 -35 -10 -19 0
-35 5 -35 10 0 6 16 10 35 10 19 0 35 -4 35 -10z m681 0 c12 -7 19 -21 19 -41
0 -29 -2 -30 -37 -27 -45 4 -51 26 -13 45 l25 13 -30 0 c-23 0 -27 3 -15 10
19 12 27 12 51 0z m99 -9 c0 -5 -9 -7 -20 -4 -32 8 -23 -7 10 -18 17 -6 30
-14 30 -19 0 -17 -31 -32 -55 -26 -34 9 -32 28 3 20 26 -6 25 -5 -7 16 -27 17
-31 24 -20 31 18 11 59 12 59 0z m106 -3 c5 -7 0 -9 -14 -6 -24 7 -51 -17 -36
-32 5 -4 20 -10 34 -12 22 -4 23 -6 7 -13 -42 -18 -86 32 -55 63 15 15 55 16
64 0z m85 1 c12 -6 25 -7 32 -2 7 5 23 7 37 5 14 -2 48 -4 75 -5 44 -2 50 -5
51 -24 1 -12 4 -29 8 -38 6 -16 2 -17 -31 -10 -21 4 -47 8 -59 8 -11 1 -28 8
-36 15 -13 10 -17 10 -22 -3 -5 -15 -8 -15 -28 -1 -12 9 -34 16 -48 16 -18 0
-21 -3 -11 -9 8 -5 20 -7 28 -4 7 3 13 0 13 -6 0 -12 -39 -15 -56 -3 -22 14
-26 50 -7 61 23 13 30 13 54 0z m484 -4 c66 -8 158 -15 205 -16 106 -1 132 -8
136 -37 2 -12 1 -22 -4 -23 -49 -7 -99 -6 -155 2 -51 8 -71 8 -82 -1 -8 -6
-19 -9 -24 -5 -6 3 -39 6 -73 6 -35 0 -84 7 -110 15 -57 18 -77 40 -28 29 23
-5 30 -4 26 4 -4 6 -16 11 -26 11 -10 0 -21 4 -25 9 -4 8 5 13 35 20 3 0 60
-6 125 -14z m812 -35 c136 -9 185 -22 163 -43 -8 -8 -66 -12 -189 -11 -180 2
-237 10 -262 40 -21 26 8 36 86 29 39 -3 129 -10 202 -15z m-1787 -14 c0 -36
-27 -41 -28 -5 0 19 4 29 14 29 8 0 14 -10 14 -24z m92 9 c0 -5 -5 -11 -11
-13 -6 -2 -11 4 -11 13 0 9 5 15 11 13 6 -2 11 -8 11 -13z m1331 -2 c-7 -2
-21 -2 -30 0 -10 3 -4 5 12 5 17 0 24 -2 18 -5z m-1788 -93 c-4 -6 -10 -8 -15
-5 -5 3 -11 1 -15 -5 -3 -5 1 -10 9 -10 9 0 16 -4 16 -10 0 -5 -7 -10 -15 -10
-10 0 -15 -10 -15 -30 0 -16 -4 -30 -10 -30 -5 0 -10 10 -10 23 0 13 -5 28
-12 35 -9 9 -7 16 7 32 18 20 72 29 60 10z m95 0 c0 -5 -8 -11 -17 -11 -17 -1
-17 -2 0 -6 21 -5 23 -23 2 -23 -10 0 -15 -10 -15 -30 0 -16 -4 -30 -10 -30
-5 0 -10 10 -10 23 0 13 -5 28 -11 34 -8 8 -6 17 7 32 19 22 54 29 54 11z
m100 0 c0 -5 -8 -10 -17 -10 -16 -1 -16 -2 1 -15 17 -13 18 -15 3 -15 -12 0
-17 -8 -17 -30 0 -16 -4 -30 -10 -30 -5 0 -10 11 -10 25 0 14 -7 28 -15 31
-12 5 -11 10 7 30 23 24 58 32 58 14z m95 0 c3 -5 -1 -10 -9 -10 -9 0 -16 -4
-16 -10 0 -5 7 -10 15 -10 8 0 15 -4 15 -10 0 -5 -7 -10 -15 -10 -9 0 -15 -9
-15 -24 0 -14 -4 -28 -10 -31 -6 -4 -10 7 -10 25 0 18 -6 33 -15 36 -11 5 -8
11 12 30 28 26 39 29 48 14z m-435 -12 c0 -9 3 -8 10 2 5 8 12 11 16 7 10 -10
12 -67 2 -67 -4 0 -8 -7 -8 -15 0 -21 -20 -19 -21 3 0 14 -2 14 -8 -3 -8 -19
-8 -19 -19 2 -9 15 -9 29 -1 52 11 31 29 42 29 19z m540 1 c0 -6 -7 -9 -15 -5
-8 3 -15 1 -15 -4 0 -6 7 -10 15 -10 8 0 15 -4 15 -10 0 -5 -7 -10 -15 -10 -9
0 -18 -13 -22 -31 -5 -25 -8 -28 -15 -15 -5 9 -7 20 -4 25 3 5 -1 14 -8 21
-13 10 -12 14 2 30 19 20 62 27 62 9z m100 1 c0 -5 -10 -10 -22 -11 -22 0 -22
-1 2 -11 25 -11 25 -11 3 -15 -18 -3 -23 -11 -23 -34 0 -16 -4 -29 -10 -29 -5
0 -10 13 -10 29 0 16 -5 31 -12 33 -19 7 24 48 49 48 13 0 23 -4 23 -10z
m-910 -14 c6 -8 10 -25 8 -38 -4 -30 -56 -38 -75 -12 -17 23 -16 29 3 48 19
20 48 20 64 2z m105 3 c3 -4 -6 -9 -20 -13 -18 -5 -25 -13 -25 -31 0 -14 -4
-25 -10 -25 -5 0 -10 17 -10 38 0 34 2 37 29 37 16 0 32 -3 36 -6z m83 -7 c2
-7 -6 -12 -17 -12 -21 0 -27 11 -14 24 9 9 26 2 31 -12z m782 -12 c0 -16 -4
-30 -10 -30 -5 0 -10 14 -10 30 0 17 5 30 10 30 6 0 10 -13 10 -30z m110 26
c0 -11 -19 -15 -25 -6 -3 5 1 10 9 10 9 0 16 -2 16 -4z m0 -61 c0 -19 -4 -35
-10 -35 -5 0 -10 11 -10 25 0 17 -7 29 -22 35 -21 8 -20 9 10 9 30 1 32 -1 32
-34z m115 25 c4 -6 12 -7 18 -3 22 14 48 13 71 -2 20 -13 25 -13 35 -1 10 12
19 12 61 -3 42 -14 50 -20 49 -41 l0 -25 -10 25 -10 25 -24 -29 c-23 -28 -23
-28 -56 -12 -22 11 -36 13 -43 6 -5 -5 -16 -10 -24 -10 -8 0 -20 -8 -27 -17
-11 -15 -13 -15 -19 5 -4 12 -12 19 -18 16 -6 -4 -14 0 -19 7 -6 10 -9 11 -9
2 0 -20 -20 -15 -20 5 -1 16 -1 16 -14 0 -17 -23 -26 -13 -26 29 0 32 1 33 39
33 22 0 43 -5 46 -10z m505 -14 c88 -5 160 -28 160 -51 0 -8 5 -15 10 -15 6 0
10 5 10 10 0 13 21 13 40 -1 11 -8 12 -12 2 -16 -6 -2 -10 -8 -7 -12 4 -8 -88
13 -105 24 -6 3 -38 8 -73 9 -34 2 -75 7 -91 11 -23 6 -27 5 -21 -5 6 -10 2
-11 -16 -7 -66 17 -84 19 -69 8 19 -14 11 -14 -29 0 -17 6 -31 15 -31 20 0 6
9 5 21 -1 16 -9 20 -8 18 2 -5 43 -2 45 74 35 39 -5 88 -10 107 -11z m-230 10
c0 -2 -7 -7 -16 -10 -8 -3 -12 -2 -9 4 6 10 25 14 25 6z m735 -11 c66 -8 155
-15 198 -15 82 0 167 -16 167 -31 0 -25 -60 -31 -230 -24 -231 9 -250 11 -281
23 -15 6 -29 8 -32 5 -3 -3 -23 1 -44 8 l-38 14 55 5 c51 6 53 7 30 17 -24 11
-23 12 15 12 22 0 94 -6 160 -14z m-2015 -14 c0 -14 -18 -23 -30 -16 -6 4 -8
11 -5 16 8 12 35 12 35 0z m1740 -1 c0 -5 -9 -10 -20 -10 -11 0 -20 5 -20 10
0 6 9 10 20 10 11 0 20 -4 20 -10z m-955 -20 c3 -5 -1 -10 -9 -10 -9 0 -16 5
-16 10 0 6 4 10 9 10 6 0 13 -4 16 -10z m-395 -131 c0 -28 6 -42 22 -53 22
-15 22 -16 2 -16 -29 0 -44 19 -44 57 0 21 -6 36 -15 39 -22 9 -9 23 15 17 16
-4 20 -14 20 -44z m198 -4 c2 -22 10 -46 19 -52 22 -17 10 -27 -16 -13 -15 8
-21 20 -21 47 0 22 -7 41 -17 50 -17 12 -16 13 7 11 21 -3 25 -9 28 -43z m107
35 c3 -5 1 -10 -4 -10 -6 0 -11 5 -11 10 0 6 2 10 4 10 3 0 8 -4 11 -10z
m-501 -21 c14 -11 26 -24 26 -28 0 -4 -16 -15 -35 -24 -38 -18 -49 -5 -13 14
l22 12 -22 17 c-12 10 -22 21 -22 24 0 12 18 6 44 -15z m326 -29 c0 -10 -61
-42 -68 -35 -6 6 9 19 33 29 6 2 0 11 -12 21 -37 26 -26 37 12 13 19 -13 35
-25 35 -28z m340 35 c0 -8 8 -15 19 -15 10 0 24 -7 31 -15 11 -13 14 -13 26 2
13 17 13 17 14 -2 0 -21 17 -45 32 -45 4 0 8 14 8 31 0 17 4 28 10 24 6 -3 10
-22 10 -41 0 -32 -2 -34 -35 -34 -23 0 -38 6 -42 15 -5 14 -7 14 -23 0 -9 -8
-28 -14 -43 -13 -23 2 -26 6 -29 55 -2 38 1 53 10 53 6 0 12 -7 12 -15z m-940
-21 c14 -36 12 -54 -5 -54 -10 0 -15 10 -15 30 0 20 -5 30 -15 30 -10 0 -15
-10 -15 -31 0 -43 -24 -32 -28 13 -3 34 -2 35 33 36 30 1 37 -3 45 -24z m100
7 c19 -37 12 -58 -21 -63 -19 -3 -36 1 -45 9 -19 19 -18 20 14 37 26 15 26 15
4 16 -13 0 -20 4 -17 10 11 17 54 11 65 -9z m72 -31 c3 0 8 9 11 20 3 11 10
20 16 20 8 0 6 -12 -4 -36 -8 -20 -15 -38 -15 -40 0 -2 -4 -4 -10 -4 -9 0 -50
72 -50 87 1 4 11 -4 23 -19 13 -16 25 -28 29 -28z m175 10 c3 -16 12 -30 19
-30 9 0 14 11 14 30 0 33 19 42 21 10 1 -11 2 -27 3 -36 1 -12 -9 -18 -31 -20
-35 -4 -53 15 -53 55 0 32 20 25 27 -9z m433 -16 c0 -19 -4 -34 -10 -34 -5 0
-10 12 -10 26 0 17 -6 28 -20 31 -28 8 -15 21 15 15 21 -4 25 -10 25 -38z
m405 21 c20 -15 40 -23 43 -20 4 3 1 9 -5 13 -7 5 -9 13 -4 21 7 10 14 10 39
-3 35 -18 62 -21 62 -7 0 10 52 -8 100 -33 14 -7 37 -16 51 -20 15 -3 29 -13
33 -21 7 -20 -3 -19 -63 4 -27 11 -57 20 -67 19 -11 0 -27 3 -36 7 -11 4 -18
3 -18 -4 0 -6 5 -11 12 -11 6 0 8 -3 5 -7 -4 -4 -25 4 -48 16 -46 26 -66 19
-29 -11 28 -22 24 -21 -35 8 -22 10 -44 25 -48 32 -12 18 -27 14 -27 -8 0 -10
8 -24 18 -29 15 -9 15 -10 -4 -11 -27 0 -61 35 -42 43 10 4 10 8 -2 16 -13 10
-13 12 0 21 21 14 23 13 65 -15z m509 -9 c8 3 23 1 33 -6 16 -9 15 -10 -6 -4
-16 4 -21 3 -17 -5 4 -6 13 -11 20 -11 8 0 16 -11 18 -25 6 -28 3 -28 -78 4
-37 14 -104 63 -104 74 0 3 27 -3 60 -14 33 -10 66 -16 74 -13z m426 -15 c69
-5 139 -12 156 -16 20 -4 34 -3 38 4 9 14 64 14 105 0 21 -8 29 -14 21 -19 -7
-4 -152 -7 -324 -6 -247 2 -316 5 -336 17 -24 13 -24 14 27 19 28 3 55 9 59
13 4 4 35 5 68 2 34 -3 117 -10 186 -14z m731 -5 c63 -7 124 -18 135 -24 18
-10 18 -11 -6 -20 -75 -28 -431 -15 -463 17 -38 38 123 51 334 27z m-1981 -21
c0 -8 -4 -15 -10 -15 -5 0 -10 7 -10 15 0 8 5 15 10 15 6 0 10 -7 10 -15z
m-392 -130 c2 -22 10 -46 19 -52 21 -16 8 -31 -15 -17 -10 7 -18 27 -20 48 -2
21 -10 40 -18 43 -22 8 -16 25 9 21 18 -2 23 -10 25 -43z m-408 25 c0 -5 10
-10 23 -10 20 -1 21 -2 5 -14 -22 -16 -23 -45 -2 -53 13 -5 13 -7 2 -14 -22
-14 -27 -11 -48 33 -15 31 -17 45 -9 55 13 15 29 17 29 3z m905 0 c3 -5 1 -10
-4 -10 -6 0 -11 5 -11 10 0 6 2 10 4 10 3 0 8 -4 11 -10z m182 -16 c-7 -7 -37
7 -37 17 0 6 9 5 21 -1 11 -7 19 -14 16 -16z m-1253 -17 c13 -47 8 -55 -31
-54 -44 2 -61 34 -24 44 12 3 21 10 21 15 0 5 -9 6 -20 3 -11 -3 -20 -2 -20 4
0 10 37 19 57 13 6 -2 14 -13 17 -25z m304 -7 c18 -31 39 -42 28 -14 -4 9 -1
23 5 30 13 16 65 19 74 4 3 -5 1 -10 -5 -10 -7 0 -10 -6 -7 -14 3 -8 1 -17 -6
-19 -8 -3 -5 -10 8 -21 20 -16 20 -16 1 -31 -29 -22 -52 -18 -73 11 -16 22
-22 24 -45 15 -31 -12 -58 6 -58 38 0 47 53 54 78 11z m193 20 c5 0 4 -12 -2
-27 -8 -21 -7 -28 6 -35 24 -14 18 -37 -12 -44 -39 -10 -56 6 -58 54 -2 44 15
67 43 57 8 -3 18 -5 23 -5z m184 2 c6 -4 16 -15 23 -24 12 -15 10 -18 -20 -27
-25 -7 -28 -9 -10 -10 25 -1 31 -21 6 -21 -47 0 -70 43 -38 74 17 18 24 19 39
8z m209 -18 c9 -8 16 -26 16 -39 0 -20 -4 -23 -37 -22 -48 2 -58 30 -16 45
l28 10 -28 1 c-16 1 -26 5 -22 11 9 15 42 12 59 -6z m170 10 c11 -4 16 -18 15
-43 l-1 -36 -10 33 c-6 17 -17 32 -24 32 -8 0 -14 5 -14 10 0 11 11 13 34 4z
m439 -27 c42 -25 80 -67 60 -67 -4 0 -32 14 -62 30 -30 17 -60 30 -66 30 -7 0
-19 8 -28 18 -16 18 -15 19 16 18 18 -1 54 -14 80 -29z m441 17 c37 -10 111
-17 191 -18 126 -2 175 -13 175 -37 0 -7 -12 -9 -34 -5 -19 4 -37 3 -40 -2 -7
-11 -230 -7 -306 5 -88 15 -121 40 -82 62 23 14 24 14 96 -5z m-1856 -1 c-10
-2 -28 -2 -40 0 -13 2 -5 4 17 4 22 1 32 -1 23 -4z m1289 -13 c14 -11 29 -17
34 -14 5 3 9 -2 9 -10 0 -9 -3 -16 -6 -16 -9 0 -47 22 -73 41 -19 15 -20 19
-6 19 9 0 28 -9 42 -20z m223 5 c30 -17 54 -19 45 -4 -4 6 12 1 35 -11 23 -12
39 -24 36 -27 -3 -4 -1 -12 5 -20 16 -18 -4 -17 -43 3 -17 9 -41 13 -53 10
-15 -4 -38 2 -62 16 -34 21 -36 23 -15 26 12 2 20 8 17 13 -9 13 6 11 35 -6z
m-334 -40 c9 -8 11 -15 6 -15 -5 0 -15 7 -22 15 -7 8 -9 15 -6 15 4 0 14 -7
22 -15z m-101 -5 c3 -5 1 -10 -4 -10 -6 0 -11 5 -11 10 0 6 2 10 4 10 3 0 8
-4 11 -10z m-1095 -106 c0 -8 8 -14 18 -14 12 0 14 -3 4 -8 -8 -6 -10 -21 -7
-44 3 -20 2 -39 -3 -42 -13 -7 -42 87 -35 113 6 22 23 19 23 -5z m1230 -37
c56 -37 89 -66 102 -90 7 -14 1 -13 -32 8 -23 15 -48 24 -55 21 -7 -2 -31 9
-54 25 -29 22 -40 37 -39 54 3 27 13 25 78 -18z m158 -44 c34 -24 62 -47 62
-50 0 -3 -6 -1 -12 5 -7 5 -24 13 -38 17 -31 9 -148 86 -154 102 -7 17 66 -21
142 -74z m-1288 14 c0 -54 -19 -36 -27 24 -6 40 -5 43 10 30 11 -8 17 -28 17
-54z m134 41 c18 -30 29 -78 17 -78 -5 0 -13 5 -16 10 -3 6 -17 7 -31 4 -32
-8 -46 23 -19 42 18 14 18 14 -1 14 -19 1 -19 1 0 15 26 20 33 19 50 -7z m120
-40 c4 -17 2 -28 -4 -28 -6 0 -16 12 -23 28 -6 15 -16 30 -21 33 -5 4 -5 12
-1 19 10 16 40 -16 49 -52z m187 30 c24 -25 32 -29 42 -18 9 10 9 14 -1 17 -6
3 -10 9 -6 14 8 14 36 11 56 -8 22 -20 24 -63 3 -63 -8 0 -15 7 -15 15 0 8 -7
15 -15 15 -8 0 -15 -4 -15 -10 0 -5 5 -10 11 -10 5 0 7 -5 4 -11 -5 -7 -15 -5
-32 6 -23 15 -26 15 -43 0 -10 -9 -24 -14 -29 -10 -6 3 -11 -1 -11 -9 0 -9 -4
-16 -10 -16 -10 0 -12 13 -12 65 0 41 1 45 17 39 8 -4 15 -1 15 5 0 18 10 13
41 -21z m446 17 c-4 -8 -2 -17 3 -20 6 -4 10 -15 10 -26 0 -11 7 -19 16 -19 8
0 12 -4 9 -10 -9 -14 -45 11 -45 32 0 9 -4 20 -10 23 -6 4 -5 11 3 20 16 18
21 19 14 0z m451 -27 c45 -31 53 -48 23 -48 -20 0 -40 16 -81 63 -22 25 -22
27 -5 21 11 -4 39 -20 63 -36z m-1301 26 c-3 -3 -12 -4 -19 -1 -8 3 -5 6 6 6
11 1 17 -2 13 -5z m153 -42 c0 -21 -4 -32 -9 -26 -12 13 -22 60 -14 67 12 13
23 -5 23 -41z m135 30 c0 -7 6 -17 14 -21 8 -5 11 -16 8 -25 -7 -18 -47 -22
-47 -4 0 6 -7 19 -16 29 -9 10 -13 23 -9 29 9 15 50 8 50 -8z m323 6 c9 -9 17
-9 36 2 23 12 28 10 60 -16 33 -28 46 -54 26 -54 -5 0 -13 7 -18 16 -6 10 -18
14 -38 11 -27 -4 -28 -5 -7 -12 22 -7 23 -25 2 -25 -10 0 -89 76 -89 85 0 9
16 5 28 -7z m174 -5 c16 -20 22 -63 7 -63 -5 0 -9 11 -9 24 0 30 -16 42 -34
27 -10 -9 -15 -8 -19 3 -5 13 3 19 34 25 3 0 13 -7 21 -16z m-231 -38 c-9 -30
-9 -30 -10 10 -1 25 2 36 9 29 6 -6 6 -21 1 -39z m360 21 c15 -13 34 -26 41
-29 7 -2 10 -8 6 -12 -4 -4 -13 -2 -20 4 -7 7 -28 23 -47 36 -19 14 -29 25
-22 25 7 0 26 -11 42 -24z m85 -3 c32 -27 43 -43 27 -43 -5 1 -26 16 -48 35
-47 41 -29 47 21 8z m624 12 c17 -9 30 -20 30 -26 0 -11 -21 -1 -55 25 -26 20
-12 20 25 1z m110 -15 c0 -5 -7 -7 -15 -4 -8 4 -15 8 -15 10 0 2 7 4 15 4 8 0
15 -4 15 -10z m-1960 -20 c0 -5 -4 -10 -10 -10 -5 0 -10 5 -10 10 0 6 5 10 10
10 6 0 10 -4 10 -10z m2090 0 c8 -5 11 -10 5 -10 -5 0 -17 5 -25 10 -8 5 -10
10 -5 10 6 0 17 -5 25 -10z m-2083 -177 c4 -45 2 -65 -4 -58 -15 15 -37 131
-28 145 13 21 25 -13 32 -87z m1296 20 c48 -44 70 -72 46 -58 -27 17 -129 110
-129 118 0 11 28 -9 83 -60z m185 18 c55 -38 113 -91 98 -91 -14 0 -112 68
-140 99 -40 41 -27 39 42 -8z m-1158 -17 c11 -25 20 -55 20 -66 0 -19 -1 -19
-20 4 -26 34 -41 74 -34 93 9 23 13 19 34 -31z m-151 -12 c19 -76 21 -92 14
-92 -8 0 -43 108 -43 130 0 24 20 -3 29 -38z m57 7 c7 -19 13 -45 13 -59 0
-24 0 -24 -12 -5 -13 22 -37 85 -37 98 0 21 25 -3 36 -34z m164 -27 c23 -51
23 -52 12 -52 -9 0 -20 20 -49 90 -14 31 -14 33 1 21 9 -8 25 -34 36 -59z
m474 37 c15 -12 25 -27 22 -34 -2 -7 1 -18 7 -24 8 -8 8 -11 0 -11 -13 0 -83
70 -83 83 0 14 27 7 54 -14z m826 -9 c48 -31 90 -70 75 -70 -13 0 -100 58
-120 80 -26 28 -9 25 45 -10z m-1110 3 c0 -7 5 -13 11 -13 5 0 7 -5 3 -11 -3
-6 -1 -14 5 -18 6 -4 9 -15 5 -24 -5 -15 -9 -14 -25 7 -10 13 -23 34 -28 48
-7 20 -6 24 10 24 10 0 19 -6 19 -13z m48 -19 c-4 -3 -12 5 -18 18 -12 22 -12
22 6 6 10 -10 15 -20 12 -24z m62 15 c6 -11 10 -25 7 -32 -2 -6 -11 3 -19 21
-18 35 -6 45 12 11z m90 6 c20 -24 6 -28 -15 -5 -10 11 -13 20 -8 20 6 0 16
-7 23 -15z m140 -7 c0 -6 -6 -5 -15 2 -8 7 -15 14 -15 16 0 2 7 1 15 -2 8 -4
15 -11 15 -16z m175 -24 c14 -19 23 -34 20 -34 -7 0 -75 68 -75 75 0 13 32
-11 55 -41z m524 6 c28 -22 51 -43 51 -45 0 -10 -55 23 -90 54 -52 45 -20 37
39 -9z m175 15 c43 -25 86 -65 71 -65 -12 0 -101 59 -115 76 -18 21 -4 17 44
-11z m-819 -32 l18 -28 -21 19 c-12 11 -22 23 -22 28 0 14 7 9 25 -19z m1245
12 c9 -10 9 -15 1 -15 -6 0 -11 4 -11 9 0 5 -8 12 -17 14 -15 4 -15 5 -2 6 9
0 22 -6 29 -14z m-1896 -132 c19 -45 23 -68 17 -85 -8 -22 -9 -22 -23 12 -12
29 -32 147 -23 138 2 -2 15 -31 29 -65z m-225 -16 c7 -24 11 -57 9 -73 l-4
-29 -13 30 c-17 39 -27 130 -14 122 6 -4 16 -26 22 -50z m111 -11 c16 -57 9
-95 -9 -51 -18 43 -25 95 -14 95 6 0 16 -20 23 -44z m1059 -15 c41 -41 74 -90
51 -76 -6 4 -25 8 -41 9 -44 3 -120 86 -78 86 5 0 7 5 4 10 -16 26 29 6 64
-29z m-459 -27 c18 -30 30 -57 28 -60 -5 -4 -78 100 -78 111 0 20 24 -4 50
-51z m-833 24 c-3 -8 -6 -5 -6 6 -1 11 2 17 5 13 3 -3 4 -12 1 -19z m408 -14
c8 -20 15 -42 15 -48 -1 -14 -39 55 -40 72 0 22 9 13 25 -24z m756 19 c13 -16
12 -17 -3 -4 -10 7 -18 15 -18 17 0 8 8 3 21 -13z m-685 -521 c6 -29 -11 -70
-24 -58 -2 3 -11 -2 -19 -10 -20 -19 -31 -10 -39 30 -4 25 0 44 18 75 l23 41
17 -23 c10 -12 20 -37 24 -55z m104 13 c5 -5 16 -16 25 -23 18 -16 20 -42 2
-42 -26 0 -77 71 -77 107 1 15 4 14 20 -7 11 -14 24 -29 30 -35z m-220 -36
c15 -102 12 -109 -21 -49 -34 60 -39 91 -19 115 19 23 30 6 40 -66z m164 45
c10 -25 7 -34 -9 -34 -9 0 -15 9 -15 25 0 28 15 34 24 9z m-391 -51 c22 -44
29 -117 12 -139 -18 -25 -25 -16 -41 55 -10 42 -11 67 -4 85 12 33 16 32 33
-1z m97 -18 c0 -14 -4 -25 -9 -25 -5 0 -8 11 -8 25 0 14 3 25 8 25 5 0 9 -11
9 -25z m427 -117 c-3 -8 -6 -5 -6 6 -1 11 2 17 5 13 3 -3 4 -12 1 -19z"/>
<path d="M220 6544 c0 -9 5 -14 12 -12 18 6 21 28 4 28 -9 0 -16 -7 -16 -16z"/>
<path d="M720 6524 c-9 -10 -10 -18 -2 -26 12 -12 32 -2 32 17 0 21 -16 26
-30 9z"/>
<path d="M920 6324 c-9 -10 -10 -18 -2 -26 12 -12 32 -2 32 17 0 21 -16 26
-30 9z"/>
<path d="M30 6160 c0 -5 4 -10 9 -10 6 0 13 5 16 10 3 6 -1 10 -9 10 -9 0 -16
-4 -16 -10z"/>
<path d="M240 6180 c0 -5 5 -10 10 -10 6 0 10 5 10 10 0 6 -4 10 -10 10 -5 0
-10 -4 -10 -10z"/>
<path d="M922 6123 c5 -25 28 -28 28 -4 0 12 -6 21 -16 21 -9 0 -14 -7 -12
-17z"/>
<path d="M1400 6110 c0 -5 7 -10 15 -10 8 0 15 5 15 10 0 6 -7 10 -15 10 -8 0
-15 -4 -15 -10z"/>
<path d="M934 5946 c-4 -10 -2 -22 4 -28 8 -8 13 -7 18 6 4 10 2 22 -4 28 -8
8 -13 7 -18 -6z"/>
<path d="M1028 5913 c7 -3 16 -2 19 1 4 3 -2 6 -13 5 -11 0 -14 -3 -6 -6z"/>
<path d="M1125 5940 c-3 -5 -1 -10 4 -10 6 0 11 5 11 10 0 6 -2 10 -4 10 -3 0
-8 -4 -11 -10z"/>
<path d="M1228 5933 c7 -3 16 -2 19 1 4 3 -2 6 -13 5 -11 0 -14 -3 -6 -6z"/>
<path d="M1128 5873 c7 -3 16 -2 19 1 4 3 -2 6 -13 5 -11 0 -14 -3 -6 -6z"/>
<path d="M555 5780 c3 -5 8 -10 11 -10 2 0 4 5 4 10 0 6 -5 10 -11 10 -5 0 -7
-4 -4 -10z"/>
<path d="M1752 5701 c-9 -5 10 -8 46 -7 33 0 64 4 68 9 10 10 -98 9 -114 -2z"/>
<path d="M1936 5695 c-3 -8 -1 -15 4 -15 13 0 22 18 11 24 -5 3 -11 -1 -15 -9z"/>
<path d="M243 5594 c-8 -21 13 -42 28 -27 13 13 5 43 -11 43 -6 0 -13 -7 -17
-16z"/>
<path d="M2115 5510 c3 -5 10 -10 16 -10 5 0 9 5 9 10 0 6 -7 10 -16 10 -8 0
-12 -4 -9 -10z"/>
<path d="M2185 5500 c4 -6 11 -8 16 -5 14 9 11 15 -7 15 -8 0 -12 -5 -9 -10z"/>
<path d="M258 5373 c7 -3 16 -2 19 1 4 3 -2 6 -13 5 -11 0 -14 -3 -6 -6z"/>
<path d="M546 5385 c-6 -17 16 -31 33 -21 13 9 2 36 -14 36 -7 0 -16 -7 -19
-15z"/>
<path d="M1142 5359 c1 -13 8 -23 13 -21 15 3 12 35 -3 40 -9 3 -13 -3 -10
-19z"/>
<path d="M1245 5340 c-3 -5 -1 -10 4 -10 6 0 11 5 11 10 0 6 -2 10 -4 10 -3 0
-8 -4 -11 -10z"/>
<path d="M565 5200 c3 -5 11 -10 16 -10 6 0 7 5 4 10 -3 6 -11 10 -16 10 -6 0
-7 -4 -4 -10z"/>
<path d="M1058 5183 c7 -3 16 -2 19 1 4 3 -2 6 -13 5 -11 0 -14 -3 -6 -6z"/>
<path d="M1542 5154 c2 -8 6 -15 11 -15 4 1 17 1 30 1 20 0 20 1 -7 15 -35 19
-38 19 -34 -1z"/>
<path d="M60 5026 c0 -2 7 -6 15 -10 8 -3 15 -1 15 4 0 6 -7 10 -15 10 -8 0
-15 -2 -15 -4z"/>
<path d="M570 4980 c-13 -8 -12 -10 3 -10 9 0 17 5 17 10 0 12 -1 12 -20 0z"/>
<path d="M1060 4959 c0 -5 5 -7 10 -4 6 3 10 8 10 11 0 2 -4 4 -10 4 -5 0 -10
-5 -10 -11z"/>
<path d="M1543 4977 c3 -9 1 -18 -6 -21 -7 -2 -4 -5 6 -5 19 -1 23 24 5 35 -7
5 -9 2 -5 -9z"/>
<path d="M62 4808 c2 -12 10 -23 18 -23 22 0 19 39 -3 43 -15 3 -18 -1 -15
-20z"/>
<path d="M1440 4794 c0 -3 6 -12 14 -19 17 -17 30 -7 15 12 -12 13 -29 18 -29
7z"/>
<path d="M1350 4775 c0 -8 7 -15 16 -15 14 0 14 3 4 15 -7 8 -14 15 -16 15 -2
0 -4 -7 -4 -15z"/>
<path d="M1160 4591 c0 -12 6 -21 16 -21 9 0 14 7 12 17 -5 25 -28 28 -28 4z"/>
<path d="M270 4590 c0 -5 4 -10 9 -10 6 0 13 5 16 10 3 6 -1 10 -9 10 -9 0
-16 -4 -16 -10z"/>
<path d="M80 4400 c-13 -8 -12 -10 3 -10 9 0 17 5 17 10 0 12 -1 12 -20 0z"/>
<path d="M372 4408 c2 -12 10 -23 18 -23 22 0 19 39 -3 43 -15 3 -18 -1 -15
-20z"/>
<path d="M480 4420 c0 -5 5 -10 10 -10 6 0 10 5 10 10 0 6 -4 10 -10 10 -5 0
-10 -4 -10 -10z"/>
<path d="M478 4353 c6 -2 18 -2 25 0 6 3 1 5 -13 5 -14 0 -19 -2 -12 -5z"/>
<path d="M580 4420 c0 -5 5 -10 10 -10 6 0 10 5 10 10 0 6 -4 10 -10 10 -5 0
-10 -4 -10 -10z"/>
<path d="M578 4353 c6 -2 18 -2 25 0 6 3 1 5 -13 5 -14 0 -19 -2 -12 -5z"/>
<path d="M780 4420 c0 -5 7 -10 16 -10 8 0 12 5 9 10 -3 6 -10 10 -16 10 -5 0
-9 -4 -9 -10z"/>
<path d="M975 4380 c4 -6 11 -8 16 -5 14 9 11 15 -7 15 -8 0 -12 -5 -9 -10z"/>
<path d="M388 4193 c7 -3 16 -2 19 1 4 3 -2 6 -13 5 -11 0 -14 -3 -6 -6z"/>
<path d="M684 4215 c3 -9 6 -19 6 -21 0 -2 7 -4 16 -4 22 0 13 34 -10 38 -14
3 -17 0 -12 -13z"/>
<path d="M985 4220 c3 -5 11 -10 16 -10 6 0 7 5 4 10 -3 6 -11 10 -16 10 -6 0
-7 -4 -4 -10z"/>
</g>
</svg>
